<svg width="24" height="24" viewBox="0 0 24 24" fill="none" xmlns="http://www.w3.org/2000/svg">
<g id="Huge-icon/interface/solid/logout 01">
<g id="logout">
<path id="combo shape" fill-rule="evenodd" clip-rule="evenodd" d="M6.47458 2.71649C8.16252 1.59119 10.3797 2.62284 10.7085 4.51759H14C15.5188 4.51759 16.75 5.74881 16.75 7.26759C16.75 7.6818 16.4142 8.01759 16 8.01759C15.5858 8.01759 15.25 7.6818 15.25 7.26759C15.25 6.57723 14.6904 6.01759 14 6.01759H10.75V18.5176H14C14.6904 18.5176 15.25 17.9579 15.25 17.2676C15.25 16.8534 15.5858 16.5176 16 16.5176C16.4142 16.5176 16.75 16.8534 16.75 17.2676C16.75 18.7864 15.5188 20.0176 14 20.0176H10.7085C10.3797 21.9123 8.16252 22.944 6.47458 21.8187L4.47457 20.4854C3.70953 19.9753 3.25 19.1167 3.25 18.1972V6.33796C3.25 5.41849 3.70953 4.55985 4.47457 4.04982L6.47458 2.71649ZM17.4697 14.5303C17.1768 14.2374 17.1768 13.7626 17.4697 13.4697L18.1893 12.75L13 12.75C12.5858 12.75 12.25 12.4142 12.25 12C12.25 11.5858 12.5858 11.25 13 11.25L18.1893 11.25L17.4697 10.5303C17.1768 10.2374 17.1768 9.76256 17.4697 9.46967C17.7626 9.17678 18.2374 9.17678 18.5303 9.46967L19.8232 10.7626C20.5066 11.446 20.5066 12.554 19.8232 13.2374L18.5303 14.5303C18.2374 14.8232 17.7626 14.8232 17.4697 14.5303Z" fill="white"/>
</g>
</g>
</svg>
