<svg width="24" height="24" viewBox="0 0 24 24" fill="none" xmlns="http://www.w3.org/2000/svg">
<g id="Huge-Icon/ecommerce/solid/store">
<g id="store">
<path id="Combo shape" fill-rule="evenodd" clip-rule="evenodd" d="M7.23122 2H16.7687C18.5861 2 20.2203 3.24475 20.8953 5.14305L21.6533 7.27487C21.8827 7.92019 22.0413 8.61074 21.8739 9.27488C21.4776 10.8478 20.1917 12 18.6666 12C16.8257 12 15.3333 10.3211 15.3333 8.25C15.3333 10.3211 13.8409 12 12 12C10.159 12 8.66663 10.3211 8.66663 8.25C8.66663 10.3211 7.17424 12 5.3333 12C3.8082 12 2.52232 10.8478 2.12598 9.27488C1.95862 8.61074 2.11723 7.92019 2.34667 7.27487L3.10466 5.14305C3.7796 3.24476 5.41387 2 7.23122 2ZM4 13.3002V17.9997C4 20.2088 5.79086 21.9997 8 21.9997H16C18.2091 21.9997 20 20.2088 20 17.9997V13.3003C19.5812 13.4295 19.1348 13.4997 18.6667 13.4997C17.3296 13.4997 16.1772 12.937 15.3334 12.0557C14.4896 12.937 13.3372 13.4997 12.0001 13.4997C10.6629 13.4997 9.51056 12.937 8.66674 12.0557C7.82292 12.937 6.67053 13.4997 5.3334 13.4997C4.86527 13.4997 4.41887 13.4295 4 13.3002ZM15.6532 16.6312C15.8566 16.992 15.729 17.4495 15.3682 17.6529C14.1531 18.338 13.1064 18.7474 12.0027 18.7496C10.8977 18.7517 9.84898 18.3455 8.62904 17.6515C8.269 17.4466 8.14317 16.9887 8.34799 16.6287C8.5528 16.2687 9.0107 16.1429 9.37074 16.3477C10.5069 16.994 11.282 17.2509 11.9998 17.2496C12.719 17.2482 13.4943 16.9874 14.6315 16.3462C14.9924 16.1428 15.4498 16.2704 15.6532 16.6312Z" fill="white"/>
</g>
</g>
</svg>
